<svg width="32" height="30" viewBox="0 0 32 30" fill="none" xmlns="http://www.w3.org/2000/svg">
<path d="M5.46942 23.3459H9.34079V14.6593L3.80383 10.8472V21.8252C3.80383 22.6584 4.54659 23.3459 5.46942 23.3459Z" fill="#4285F4"/>
<path d="M22.5755 23.3459H26.4468C27.3697 23.3459 28.1124 22.6584 28.1124 21.8044V10.8472L22.598 14.6801V23.3459H22.5755Z" fill="#34A853"/>
<path d="M22.5755 8.0346V14.6797L28.0911 10.8468V8.80535C28.0911 6.90972 25.7497 5.8265 24.1063 6.97221L22.5755 8.0346Z" fill="#FBBC04"/>
<path fill-rule="evenodd" clip-rule="evenodd" d="M9.3183 14.659V8.03467L15.9356 12.6384L22.553 8.03467V14.6798L15.9581 19.2627L9.3183 14.659Z" fill="#EA4335"/>
<path d="M3.80383 8.78491V10.8264L9.31942 14.6593V8.03499L7.76605 6.95177C6.14514 5.82689 3.80383 6.91011 3.80383 8.78491Z" fill="#C5221F"/>
</svg>
