<svg width="34" height="30" viewBox="0 0 34 30" fill="none" xmlns="http://www.w3.org/2000/svg">
<g clip-path="url(#clip0_5_200)">
<mask id="mask0_5_200" style="mask-type:luminance" maskUnits="userSpaceOnUse" x="0" y="0" width="34" height="30">
<path d="M16.5375 29.2258C25.6709 29.2258 33.075 22.854 33.075 14.994C33.075 7.13399 25.6709 0.762207 16.5375 0.762207C7.40409 0.762207 0 7.13399 0 14.994C0 22.854 7.40409 29.2258 16.5375 29.2258Z" fill="white"/>
</mask>
<g mask="url(#mask0_5_200)">
<path d="M7.10595 58.3563C26.7285 58.3563 42.6357 44.6669 42.6357 27.7802C42.6357 10.8935 26.7285 -2.7959 7.10595 -2.7959C-12.5166 -2.7959 -28.4238 10.8935 -28.4238 27.7802C-28.4238 44.6669 -12.5166 58.3563 7.10595 58.3563Z" fill="url(#paint0_radial_5_200)"/>
</g>
<path d="M21.1889 12.1031C21.9026 12.1031 22.4812 11.6053 22.4812 10.9913C22.4812 10.3772 21.9026 9.87939 21.1889 9.87939C20.4752 9.87939 19.8967 10.3772 19.8967 10.9913C19.8967 11.6053 20.4752 12.1031 21.1889 12.1031Z" fill="white"/>
<path d="M16.5375 11.436C15.7198 11.436 14.9204 11.6447 14.2405 12.0357C13.5607 12.4266 13.0307 12.9823 12.7178 13.6324C12.4049 14.2825 12.323 14.9979 12.4825 15.6881C12.6421 16.3783 13.0358 17.0122 13.614 17.5098C14.1922 18.0074 14.9289 18.3463 15.7309 18.4836C16.5329 18.6208 17.3642 18.5504 18.1196 18.2811C18.8751 18.0118 19.5208 17.5558 19.9751 16.9707C20.4294 16.3856 20.6719 15.6977 20.6719 14.994C20.6719 14.0504 20.2363 13.1454 19.4609 12.4781C18.6856 11.8109 17.634 11.436 16.5375 11.436ZM16.5375 16.773C16.1286 16.773 15.729 16.6686 15.389 16.4731C15.0491 16.2777 14.7841 15.9998 14.6277 15.6748C14.4712 15.3497 14.4303 14.992 14.51 14.6469C14.5898 14.3018 14.7867 13.9848 15.0758 13.7361C15.3649 13.4873 15.7332 13.3178 16.1342 13.2492C16.5352 13.1805 16.9508 13.2158 17.3286 13.3504C17.7063 13.4851 18.0291 13.7131 18.2563 14.0056C18.4834 14.2982 18.6047 14.6421 18.6047 14.994C18.6047 15.4658 18.3869 15.9183 17.9992 16.2519C17.6115 16.5855 17.0857 16.773 16.5375 16.773Z" fill="white"/>
<path d="M21.7055 7.87793H11.3695C9.657 7.87793 8.26874 9.07264 8.26874 10.5464V19.4412C8.26874 20.915 9.657 22.1097 11.3695 22.1097H21.7055C23.418 22.1097 24.8062 20.915 24.8062 19.4412V10.5464C24.8062 9.07264 23.418 7.87793 21.7055 7.87793Z" stroke="white" stroke-width="2" stroke-miterlimit="10"/>
</g>
<defs>
<radialGradient id="paint0_radial_5_200" cx="0" cy="0" r="1" gradientUnits="userSpaceOnUse" gradientTransform="translate(7.10595 27.7802) scale(35.5298 30.5761)">
<stop stop-color="#FFD676"/>
<stop offset="0.25" stop-color="#F2A454"/>
<stop offset="0.38" stop-color="#F05C3C"/>
<stop offset="0.7" stop-color="#C22F86"/>
<stop offset="0.96" stop-color="#6666AD"/>
<stop offset="0.99" stop-color="#5C6CB2"/>
</radialGradient>
<clipPath id="clip0_5_200">
<rect width="33.075" height="28.4636" fill="white" transform="translate(0 0.762207)"/>
</clipPath>
</defs>
</svg>
