<svg width="33" height="30" viewBox="0 0 33 30" fill="none" xmlns="http://www.w3.org/2000/svg">
<g clip-path="url(#clip0_5_244)">
<path d="M28.4921 0.816406H4.07349C2.00929 0.816406 0.335938 2.30979 0.335938 4.15198V25.9444C0.335938 27.7866 2.00929 29.28 4.07349 29.28H28.4921C30.5563 29.28 32.2297 27.7866 32.2297 25.9444V4.15198C32.2297 2.30979 30.5563 0.816406 28.4921 0.816406Z" fill="black"/>
<path d="M22.5061 6.37549H25.8031L18.6001 13.7226L27.0738 23.7205H20.439L15.2423 17.6568L9.29607 23.7205H5.9971L13.7014 15.8619L5.57251 6.37549H12.3758L17.0732 11.9179L22.5061 6.37549ZM21.3489 21.9593H23.1758L11.3831 8.04416H9.42265L21.3489 21.9593Z" fill="white"/>
</g>
<defs>
<clipPath id="clip0_5_244">
<rect width="31.8937" height="28.4636" fill="white" transform="translate(0.335938 0.816406)"/>
</clipPath>
</defs>
</svg>
