<svg width="33" height="30" viewBox="0 0 33 30" fill="none" xmlns="http://www.w3.org/2000/svg">
<g clip-path="url(#clip0_5_240)">
<path d="M32.3684 15.0482C32.3684 7.18819 25.2287 0.816406 16.4215 0.816406C7.61427 0.816406 0.474609 7.18819 0.474609 15.0482C0.474609 22.9082 7.61427 29.28 16.4215 29.28C25.2287 29.28 32.3684 22.9082 32.3684 15.0482Z" fill="#0DC143"/>
<path d="M23.5648 8.6508C21.8552 7.08014 19.4919 6.22754 17.0783 6.22754C11.9494 6.22754 7.82624 9.95217 7.87654 14.4845C7.87654 15.9205 8.3291 17.3117 9.08332 18.5681L7.77594 22.8313L12.6534 21.7094C14.011 22.3825 15.5195 22.6967 17.028 22.6967C22.1066 22.6967 26.2298 18.972 26.2298 14.4396C26.2298 12.2408 25.2744 10.1766 23.5648 8.6508ZM17.0783 21.3055C15.7207 21.3055 14.363 20.9914 13.2065 20.3631L12.9048 20.2285L9.98844 20.9016L10.7427 18.3438L10.5415 18.0745C8.3291 14.8884 9.38498 10.6702 13.0054 8.69568C16.6257 6.72116 21.3021 7.66353 23.5145 10.8946C25.7269 14.1255 24.6711 18.2989 21.0507 20.2734C19.8942 20.9465 18.4862 21.3055 17.0783 21.3055ZM21.5032 16.3244L20.9501 16.1C20.9501 16.1 20.1455 15.7859 19.6427 15.5615C19.5924 15.5615 19.5421 15.5167 19.4919 15.5167C19.341 15.5167 19.2405 15.5615 19.1399 15.6064C19.1399 15.6064 19.0896 15.6513 18.3857 16.3693C18.3354 16.4591 18.2348 16.5039 18.1342 16.5039H18.0839C18.0337 16.5039 17.9331 16.4591 17.8828 16.4142L17.6314 16.3244C17.0783 16.1 16.5755 15.8308 16.1732 15.4718C16.0726 15.382 15.9218 15.2923 15.8212 15.2025C15.4692 14.8884 15.1173 14.5294 14.8659 14.1255L14.8156 14.0358C14.7653 13.9909 14.7653 13.946 14.715 13.8563C14.715 13.7665 14.715 13.6768 14.7653 13.6319C14.7653 13.6319 14.9664 13.4075 15.1173 13.2729C15.2178 13.1831 15.2681 13.0485 15.3687 12.9588C15.4692 12.8241 15.5195 12.6446 15.4692 12.51C15.4189 12.2856 14.8156 11.0741 14.6647 10.8048C14.5641 10.6702 14.4636 10.6253 14.3128 10.5804H14.1619C14.0613 10.5804 13.9105 10.5804 13.7596 10.5804C13.6591 10.5804 13.5585 10.6253 13.4579 10.6253L13.4076 10.6702C13.307 10.7151 13.2065 10.8048 13.1059 10.8497C13.0054 10.9394 12.9551 11.0292 12.8546 11.1189C12.5025 11.5228 12.3014 12.0164 12.3014 12.51C12.3014 12.869 12.402 13.228 12.5528 13.5421L12.6031 13.6768C13.0557 14.5294 13.6591 15.2923 14.4636 15.9654L14.6647 16.1449C14.8156 16.2796 14.9664 16.3693 15.067 16.5039C16.1229 17.3117 17.3297 17.895 18.6873 18.2092C18.8382 18.254 19.0394 18.254 19.1902 18.2989C19.341 18.2989 19.5421 18.2989 19.693 18.2989C19.9444 18.2989 20.2461 18.2092 20.4473 18.1194C20.5981 18.0297 20.6987 18.0297 20.7992 17.9399L20.8998 17.8502C21.0003 17.7604 21.1009 17.7155 21.2015 17.6258C21.3021 17.536 21.4026 17.4463 21.4529 17.3565C21.5535 17.1771 21.6037 16.9527 21.654 16.7283C21.654 16.6386 21.654 16.5039 21.654 16.4142C21.654 16.4142 21.6037 16.3693 21.5032 16.3244Z" fill="white"/>
</g>
<defs>
<clipPath id="clip0_5_240">
<rect width="31.8937" height="28.4636" fill="white" transform="translate(0.474609 0.816406)"/>
</clipPath>
</defs>
</svg>
