<svg width="33" height="25" viewBox="0 0 33 25" fill="none" xmlns="http://www.w3.org/2000/svg">
<path d="M32.0956 4.54268C31.9127 3.8435 31.5558 3.20608 31.0606 2.69389C30.5654 2.1817 29.9491 1.81261 29.273 1.62339C26.798 0.925293 16.8369 0.925293 16.8369 0.925293C16.8369 0.925293 6.87539 0.946424 4.40038 1.64452C3.72432 1.83376 3.10799 2.20286 2.61277 2.71507C2.11754 3.22729 1.7607 3.86474 1.57779 4.56394C0.829156 9.112 0.538748 16.0422 1.59834 20.4083C1.78128 21.1075 2.13813 21.7449 2.63335 22.2571C3.12857 22.7693 3.74489 23.1384 4.42094 23.3276C6.89594 24.0257 16.8573 24.0257 16.8573 24.0257C16.8573 24.0257 26.8184 24.0257 29.2933 23.3276C29.9694 23.1384 30.5857 22.7693 31.081 22.2571C31.5762 21.7449 31.9331 21.1075 32.116 20.4083C32.9057 15.8538 33.149 8.92787 32.0956 4.54268Z" fill="#FF0000"/>
<path d="M13.6664 17.4255L21.9298 12.4754L13.6664 7.52539V17.4255Z" fill="white"/>
</svg>
